<mxfile host="app.diagrams.net" modified="2023-03-28T02:52:43.336Z" agent="Mozilla/5.0 (Windows NT 10.0; Win64; x64) AppleWebKit/537.36 (KHTML, like Gecko) Chrome/111.0.0.0 Safari/537.36" etag="zfdAj1ZxZxZQjyfgffgG" version="21.1.1" type="device">
  <diagram name="第 1 页" id="TxwBBuSr2QPXWZzYJ91D">
    <mxGraphModel dx="1050" dy="540" grid="1" gridSize="10" guides="1" tooltips="1" connect="1" arrows="1" fold="1" page="1" pageScale="1" pageWidth="827" pageHeight="1169" math="0" shadow="0">
      <root>
        <mxCell id="0" />
        <mxCell id="1" parent="0" />
        <mxCell id="RaSI-JB2TsB69Njtq5vB-16" value="" style="rounded=1;whiteSpace=wrap;html=1;fillColor=#FFFFCC;" vertex="1" parent="1">
          <mxGeometry x="535" y="130" width="180" height="60" as="geometry" />
        </mxCell>
        <mxCell id="RaSI-JB2TsB69Njtq5vB-15" value="" style="rounded=1;whiteSpace=wrap;html=1;fillColor=#FFFFCC;" vertex="1" parent="1">
          <mxGeometry x="535" y="210" width="180" height="60" as="geometry" />
        </mxCell>
        <mxCell id="RaSI-JB2TsB69Njtq5vB-1" value="Local Variables Area&lt;br&gt;(optional,size varies)" style="rounded=0;whiteSpace=wrap;html=1;fillColor=#99CCFF;" vertex="1" parent="1">
          <mxGeometry x="240" y="270" width="250" height="40" as="geometry" />
        </mxCell>
        <mxCell id="RaSI-JB2TsB69Njtq5vB-2" value="Padding to adjust size to multiple of 8 bytes&lt;br&gt;(optional,size varies)" style="rounded=0;whiteSpace=wrap;html=1;fillColor=#99CCFF;" vertex="1" parent="1">
          <mxGeometry x="240" y="190" width="250" height="40" as="geometry" />
        </mxCell>
        <mxCell id="RaSI-JB2TsB69Njtq5vB-3" value="Function Parameters Area&lt;br&gt;(optional,size varies)" style="rounded=0;whiteSpace=wrap;html=1;fillColor=#99CCFF;" vertex="1" parent="1">
          <mxGeometry x="240" y="230" width="250" height="40" as="geometry" />
        </mxCell>
        <mxCell id="RaSI-JB2TsB69Njtq5vB-4" value="CR Save Word&lt;br&gt;(optional)" style="rounded=0;whiteSpace=wrap;html=1;fillColor=#99CCFF;" vertex="1" parent="1">
          <mxGeometry x="240" y="310" width="250" height="40" as="geometry" />
        </mxCell>
        <mxCell id="RaSI-JB2TsB69Njtq5vB-5" value="GPR Save Area&lt;br&gt;(optional,size varies)" style="rounded=0;whiteSpace=wrap;html=1;fillColor=#99CCFF;" vertex="1" parent="1">
          <mxGeometry x="240" y="350" width="250" height="40" as="geometry" />
        </mxCell>
        <mxCell id="RaSI-JB2TsB69Njtq5vB-6" value="FPR Save Area&lt;br&gt;(optional,size varies)" style="rounded=0;whiteSpace=wrap;html=1;fillColor=#99CCFF;" vertex="1" parent="1">
          <mxGeometry x="240" y="390" width="250" height="40" as="geometry" />
        </mxCell>
        <mxCell id="RaSI-JB2TsB69Njtq5vB-7" value="" style="endArrow=classic;html=1;rounded=0;" edge="1" parent="1">
          <mxGeometry width="50" height="50" relative="1" as="geometry">
            <mxPoint x="580" y="429" as="sourcePoint" />
            <mxPoint x="500" y="429" as="targetPoint" />
          </mxGeometry>
        </mxCell>
        <mxCell id="RaSI-JB2TsB69Njtq5vB-8" value="" style="endArrow=classic;html=1;rounded=0;" edge="1" parent="1">
          <mxGeometry width="50" height="50" relative="1" as="geometry">
            <mxPoint x="579" y="109" as="sourcePoint" />
            <mxPoint x="499" y="109" as="targetPoint" />
          </mxGeometry>
        </mxCell>
        <mxCell id="RaSI-JB2TsB69Njtq5vB-9" value="低地址" style="text;html=1;align=center;verticalAlign=middle;resizable=0;points=[];autosize=1;strokeColor=none;fillColor=none;" vertex="1" parent="1">
          <mxGeometry x="504" y="79" width="60" height="30" as="geometry" />
        </mxCell>
        <mxCell id="RaSI-JB2TsB69Njtq5vB-10" value="高地址" style="text;html=1;align=center;verticalAlign=middle;resizable=0;points=[];autosize=1;strokeColor=none;fillColor=none;" vertex="1" parent="1">
          <mxGeometry x="505" y="399" width="60" height="30" as="geometry" />
        </mxCell>
        <mxCell id="RaSI-JB2TsB69Njtq5vB-11" value="BackChain Word" style="rounded=0;whiteSpace=wrap;html=1;fillColor=#99CCFF;" vertex="1" parent="1">
          <mxGeometry x="240" y="110" width="250" height="40" as="geometry" />
        </mxCell>
        <mxCell id="RaSI-JB2TsB69Njtq5vB-12" value="LR Save Word" style="rounded=0;whiteSpace=wrap;html=1;fillColor=#99CCFF;" vertex="1" parent="1">
          <mxGeometry x="240" y="150" width="250" height="40" as="geometry" />
        </mxCell>
        <mxCell id="RaSI-JB2TsB69Njtq5vB-13" value="补字节数(0至7个字节)，&lt;br&gt;来使得栈以的长度是8的倍数。" style="text;html=1;align=center;verticalAlign=middle;resizable=0;points=[];autosize=1;strokeColor=none;fillColor=none;" vertex="1" parent="1">
          <mxGeometry x="535" y="220" width="190" height="40" as="geometry" />
        </mxCell>
        <mxCell id="RaSI-JB2TsB69Njtq5vB-14" value="保存的是上一个栈帧的栈顶地址，&lt;br&gt;即上一个栈帧的低地址。" style="text;html=1;align=center;verticalAlign=middle;resizable=0;points=[];autosize=1;strokeColor=none;fillColor=none;" vertex="1" parent="1">
          <mxGeometry x="530" y="140" width="200" height="40" as="geometry" />
        </mxCell>
        <mxCell id="RaSI-JB2TsB69Njtq5vB-17" value="" style="endArrow=classic;html=1;rounded=0;entryX=1;entryY=0.5;entryDx=0;entryDy=0;exitX=0;exitY=0.5;exitDx=0;exitDy=0;" edge="1" parent="1" source="RaSI-JB2TsB69Njtq5vB-16" target="RaSI-JB2TsB69Njtq5vB-11">
          <mxGeometry width="50" height="50" relative="1" as="geometry">
            <mxPoint x="530" y="160" as="sourcePoint" />
            <mxPoint x="440" y="290" as="targetPoint" />
          </mxGeometry>
        </mxCell>
        <mxCell id="RaSI-JB2TsB69Njtq5vB-18" value="" style="endArrow=classic;html=1;rounded=0;entryX=1;entryY=0.5;entryDx=0;entryDy=0;exitX=0;exitY=0.5;exitDx=0;exitDy=0;" edge="1" parent="1" source="RaSI-JB2TsB69Njtq5vB-15" target="RaSI-JB2TsB69Njtq5vB-2">
          <mxGeometry width="50" height="50" relative="1" as="geometry">
            <mxPoint x="390" y="340" as="sourcePoint" />
            <mxPoint x="440" y="290" as="targetPoint" />
          </mxGeometry>
        </mxCell>
        <mxCell id="RaSI-JB2TsB69Njtq5vB-19" value="&lt;b&gt;EABI Stack Frame&lt;/b&gt;" style="text;html=1;align=center;verticalAlign=middle;resizable=0;points=[];autosize=1;strokeColor=none;fillColor=none;" vertex="1" parent="1">
          <mxGeometry x="300" y="430" width="130" height="30" as="geometry" />
        </mxCell>
      </root>
    </mxGraphModel>
  </diagram>
</mxfile>
